<?xml version="1.0" encoding="UTF-8" standalone="no"?>
<svg
   xmlns:dc="http://purl.org/dc/elements/1.1/"
   xmlns:cc="http://creativecommons.org/ns#"
   xmlns:rdf="http://www.w3.org/1999/02/22-rdf-syntax-ns#"
   xmlns:svg="http://www.w3.org/2000/svg"
   xmlns="http://www.w3.org/2000/svg"
   xmlns:sodipodi="http://sodipodi.sourceforge.net/DTD/sodipodi-0.dtd"
   xmlns:inkscape="http://www.inkscape.org/namespaces/inkscape"
   id="svg7656"
   version="1.1"
   width="16px"
   height="16px"
   inkscape:version="0.91 r13725"
   sodipodi:docname="ublockorigin-off.svg">
  <sodipodi:namedview
     pagecolor="#ffffff"
     bordercolor="#666666"
     borderopacity="1"
     objecttolerance="10"
     gridtolerance="10"
     guidetolerance="10"
     inkscape:pageopacity="0"
     inkscape:pageshadow="2"
     inkscape:window-width="1661"
     inkscape:window-height="1028"
     id="namedview11"
     showgrid="false"
     showguides="false"
     inkscape:zoom="62.764314"
     inkscape:cx="8.2885846"
     inkscape:cy="5.1514521"
     inkscape:window-x="0"
     inkscape:window-y="0"
     inkscape:window-maximized="0"
     inkscape:current-layer="svg7656" />
  <defs
     id="defs7668" />
  <metadata
     id="metadata7662">
    <rdf:RDF>
      <cc:Work
         rdf:about="">
        <dc:format>image/svg+xml</dc:format>
        <dc:type
           rdf:resource="http://purl.org/dc/dcmitype/StillImage" />
        <dc:title />
      </cc:Work>
    </rdf:RDF>
  </metadata>
  <path
     fill="ButtonText"
     style="fill-opacity:0.6"
     d="M 8 -0.14648438 C 5 1.8535156 4.0000001 1.8535156 1 1.8535156 C 1 11.230161 1.0767979 11.851479 6.8476562 15.185547 L 9.8710938 12.076172 L 7.8769531 9.9882812 C 7.6750413 9.7618721 7.6133279 9.3147377 7.7402344 9.1171875 C 7.7340216 9.1109934 7.726852 9.105867 7.7207031 9.0996094 C 7.4151999 9.6108323 6.853256 9.8535156 6 9.8535156 C 4.625 9.8535156 4 9.2285156 4 7.8535156 L 4 4.8535156 L 5 4.8535156 L 5 7.8535156 C 5 8.7285156 5.125 8.8535156 6 8.8535156 C 6.875 8.8535156 7 8.7285156 7 7.8535156 L 7 7.3515625 L 7 4.8535156 L 8 4.8535156 L 8 5.3652344 C 8.4194285 5.0472272 8.9362711 4.8515625 9.5 4.8515625 C 10.874799 4.8515625 12 5.9767625 12 7.3515625 C 12 8.2606187 11.50227 9.0525788 10.771484 9.4902344 L 11.759766 10.503906 L 14.845703 7.4277344 C 14.853324 7.4198105 14.892587 7.3813257 14.902344 7.3710938 C 14.991941 5.9470722 15 4.1927024 15 1.8535156 C 12 1.8535156 11 1.8535156 8 -0.14648438 z M 9.5 5.8515625 C 8.66565 5.8515625 8 6.5172125 8 7.3515625 C 8 7.760198 8.1609179 8.1271626 8.421875 8.3964844 L 8.6347656 8.1816406 C 8.6347656 8.1816406 9.2605194 7.9407001 9.4941406 8.1835938 L 10.044922 8.7480469 C 10.605437 8.5315736 11 7.9926247 11 7.3515625 C 11 6.5172125 10.33435 5.8515625 9.5 5.8515625 z "
     id="path6" />
  <path
     style="color:#bebebe;font-style:normal;font-variant:normal;font-weight:normal;font-stretch:normal;font-size:xx-small;line-height:normal;font-family:'Bitstream Vera Sans';-inkscape-font-specification:'Bitstream Vera Sans';text-indent:0;text-align:start;text-decoration:none;text-decoration-line:none;letter-spacing:normal;word-spacing:normal;text-transform:none;direction:ltr;block-progression:tb;writing-mode:lr-tb;text-anchor:start;display:inline;overflow:visible;visibility:visible;fill:#ef2929;fill-opacity:1;stroke:none;stroke-width:2;marker:none;enable-background:accumulate"
     d="m 8.663,9.0876506 0,0.7355097 c 0,0.1895497 0.09153,0.3687797 0.22631,0.5091997 l 1.669037,1.69732 -1.669037,1.69733 C 8.754525,13.86742 8.663,14.04666 8.663,14.2362 l 0,0.73551 0.735508,0 c 0.228331,0 0.391626,-0.0571 0.537486,-0.19802 l 1.867058,-1.89535 1.895347,1.92364 C 13.844259,14.94288 14.035843,15 14.264174,15 l 0.735508,0 0,-0.73551 c 0,-0.18955 -0.09152,-0.39707 -0.22631,-0.53748 l -1.697326,-1.66904 1.697326,-1.69733 c 0.134785,-0.14041 0.22631,-0.34793 0.22631,-0.5374797 l 0,-0.7355097 -0.735508,0 c -0.228331,0 -0.419915,0.0854 -0.565775,0.22631 L 11.831341,11.20931 9.935994,9.2856706 c -0.14586,-0.1409 -0.309155,-0.19802 -0.537486,-0.19802 l -0.735508,0 z"
     id="path7591"
     inkscape:connector-curvature="0" />
</svg>
