<?xml version="1.0" encoding="UTF-8" standalone="no"?>
<svg
   xmlns:dc="http://purl.org/dc/elements/1.1/"
   xmlns:cc="http://creativecommons.org/ns#"
   xmlns:rdf="http://www.w3.org/1999/02/22-rdf-syntax-ns#"
   xmlns:svg="http://www.w3.org/2000/svg"
   xmlns="http://www.w3.org/2000/svg"
   xmlns:sodipodi="http://sodipodi.sourceforge.net/DTD/sodipodi-0.dtd"
   xmlns:inkscape="http://www.inkscape.org/namespaces/inkscape"
   id="svg7656"
   version="1.1"
   width="16px"
   height="16px"
   inkscape:version="0.91 r13725"
   sodipodi:docname="ublockorigin.svg">
  <sodipodi:namedview
     pagecolor="#ffffff"
     bordercolor="#666666"
     borderopacity="1"
     objecttolerance="10"
     gridtolerance="10"
     guidetolerance="10"
     inkscape:pageopacity="0"
     inkscape:pageshadow="2"
     inkscape:window-width="1661"
     inkscape:window-height="1028"
     id="namedview11"
     showgrid="false"
     showguides="false"
     inkscape:zoom="18.091722"
     inkscape:cx="3.4754761"
     inkscape:cy="10.325831"
     inkscape:window-x="0"
     inkscape:window-y="0"
     inkscape:window-maximized="0"
     inkscape:current-layer="svg7656" />
  <defs
     id="defs7668" />
  <metadata
     id="metadata7662">
    <rdf:RDF>
      <cc:Work
         rdf:about="">
        <dc:format>image/svg+xml</dc:format>
        <dc:type
           rdf:resource="http://purl.org/dc/dcmitype/StillImage" />
        <dc:title />
      </cc:Work>
    </rdf:RDF>
  </metadata>
  <path
     d="M 8 -0.14648438 C 5 1.8535156 4.0000001 1.8535156 1 1.8535156 C 1 11.853516 0.99999995 11.853516 8 15.853516 C 15 11.853516 15 11.853516 15 1.8535156 C 12 1.8535156 11 1.8535156 8 -0.14648438 z M 9.5 4.8515625 C 10.874799 4.8515625 12 5.9767625 12 7.3515625 C 12 8.7263625 10.874799 9.8515625 9.5 9.8515625 C 8.8046538 9.8515625 8.1750576 9.562002 7.7207031 9.0996094 C 7.4151999 9.6108323 6.853256 9.8535156 6 9.8535156 C 4.625 9.8535156 4 9.2285156 4 7.8535156 L 4 4.8535156 L 5 4.8535156 L 5 7.8535156 C 5 8.7285156 5.125 8.8535156 6 8.8535156 C 6.875 8.8535156 7 8.7285156 7 7.8535156 L 7 7.3515625 L 7 4.8535156 L 8 4.8535156 L 8 5.3652344 C 8.4194285 5.0472272 8.9362711 4.8515625 9.5 4.8515625 z M 9.5 5.8515625 C 8.66565 5.8515625 8 6.5172125 8 7.3515625 C 8 8.1859125 8.66565 8.8515625 9.5 8.8515625 C 10.334349 8.8515625 11 8.1859125 11 7.3515625 C 11 6.5172125 10.33435 5.8515625 9.5 5.8515625 z "
sodipodi:nodetypes="sssssssssccccccccccccccscccccccccccccccsccccccccccccscccccccccccccsccccc" inkscape:connector-curvature="0" fill="ButtonText"/>
</svg>
