<?xml version="1.0" encoding="UTF-8" standalone="no"?>
<svg
   xmlns:dc="http://purl.org/dc/elements/1.1/"
   xmlns:cc="http://creativecommons.org/ns#"
   xmlns:rdf="http://www.w3.org/1999/02/22-rdf-syntax-ns#"
   xmlns:svg="http://www.w3.org/2000/svg"
   xmlns="http://www.w3.org/2000/svg"
   xmlns:sodipodi="http://sodipodi.sourceforge.net/DTD/sodipodi-0.dtd"
   xmlns:inkscape="http://www.inkscape.org/namespaces/inkscape"
   width="16"
   viewBox="0 0 16 16"
   height="16"
   version="1.1"
   id="svg4"
   sodipodi:docname="cancel.svg"
   inkscape:version="0.92pre3 r">
  <metadata
     id="metadata10">
    <rdf:RDF>
      <cc:Work
         rdf:about="">
        <dc:format>image/svg+xml</dc:format>
        <dc:type
           rdf:resource="http://purl.org/dc/dcmitype/StillImage" />
      </cc:Work>
    </rdf:RDF>
  </metadata>
  <defs
     id="defs8" />
  <sodipodi:namedview
     pagecolor="#ffffff"
     bordercolor="#666666"
     borderopacity="1"
     objecttolerance="10"
     gridtolerance="10"
     guidetolerance="10"
     inkscape:pageopacity="0"
     inkscape:pageshadow="2"
     inkscape:window-width="1195"
     inkscape:window-height="682"
     id="namedview6"
     showgrid="false"
     inkscape:zoom="14.75"
     inkscape:cx="-5.4237288"
     inkscape:cy="10.169492"
     inkscape:window-x="0"
     inkscape:window-y="81"
     inkscape:window-maximized="0"
     inkscape:current-layer="svg4" />
     <path style="fill:ButtonText;fill-rule:evenodd"
     d="m 4.2495255,3.5294055 c -0.1885477,-0.00145 -0.4067911,0.02682 -0.6536117,0.068801 -0.048169,0.3442283 -0.029765,0.6339964 0,0.894416 0.00226,0.08327 -0.01,0.1616909 0,0.2408042 0.032139,0.254293 0.1259366,0.5028458 0.3096055,0.722413 0.061224,0.073189 0.1202536,0.1361451 0.2064037,0.2064037 0.3753889,0.4041788 0.7771994,0.7822545 1.1696209,1.1696208 L 6.4511647,8.0014856 C 6.0569981,8.3870829 5.6739653,8.7837399 5.2815439,9.1711062 4.8919235,9.5611257 4.4931888,9.9421317 4.111923,10.340727 c -0.081374,0.05858 -0.1468709,0.140283 -0.2064037,0.206404 -0.070218,0.07799 -0.1273179,0.15414 -0.172003,0.240804 -0.08257,0.16014 -0.1166864,0.335768 -0.1376025,0.51601 -0.013104,0.112914 -0.034921,0.227146 -0.034401,0.344005 -0.00298,0.05428 -9.2e-4,0.113671 0,0.172004 0.00723,0.199559 0.031201,0.390024 0.034401,0.58481 0.1976669,0.02766 0.3831983,0.03181 0.5504098,0.0344 0.031249,4.83e-4 0.072859,4.25e-4 0.1032019,0 0.077575,-0.0011 0.1341736,-0.02723 0.2064037,-0.0344 0.011754,-0.0012 0.022774,0.0013 0.034401,0 0.3534182,-0.01222 0.6872884,-0.06116 0.9632171,-0.309606 0.073189,-0.06123 0.1361451,-0.120252 0.2064037,-0.206404 L 7.9991924,9.5495129 10.338434,11.888754 c 0.05858,0.08137 0.140284,0.146872 0.206404,0.206404 0.07799,0.07022 0.15414,0.127318 0.240804,0.172004 0.153167,0.08068 0.31208,0.116176 0.481609,0.137602 0.190514,0.02526 0.385126,0.04248 0.584811,0.0344 0.167213,-0.0026 0.352737,-0.0068 0.550409,-0.0344 0.06159,-0.362148 0.06574,-0.645128 0.0344,-0.894416 -0.0032,-0.09527 -0.02016,-0.183264 -0.0344,-0.275206 -0.05132,-0.331174 -0.186328,-0.657064 -0.516008,-0.894415 -0.375391,-0.4041789 -0.7772,-0.7822545 -1.169622,-1.1696208 L 9.54722,8.0014853 11.886463,5.6622436 c 0.08614,-0.070259 0.14518,-0.1332147 0.206402,-0.2064038 0.06833,-0.078936 0.12834,-0.1579139 0.172004,-0.2408042 0.07536,-0.1430522 0.114868,-0.2899907 0.137602,-0.447208 0.0027,-0.010711 -0.0025,-0.023589 0,-0.034401 0.07447,-0.3192821 0.06351,-0.6813718 0,-1.1352202 -0.362123,-0.061591 -0.64514,-0.065733 -0.894416,-0.034401 -0.08901,0.012806 -0.193458,0.00978 -0.275205,0.034401 -0.0341,0.0096 -0.06997,0.02279 -0.103202,0.034401 -0.292658,0.062668 -0.577704,0.185041 -0.791214,0.4816087 C 9.9342554,4.4896054 9.5561796,4.8914154 9.1688133,5.2838369 8.7814469,5.6762583 8.38479,6.0592912 7.9991924,6.4534576 7.6242213,6.0598385 7.2481254,5.6678598 6.8639721,5.2838368 c -0.0057,-0.00576 -0.028704,0.00576 -0.034401,0 C 6.4422052,4.8914154 6.0641294,4.4896053 5.6599507,4.1142159 5.6013671,4.0328426 5.5196677,3.9673451 5.4535469,3.9078123 5.4077059,3.8665385 5.3649227,3.8366887 5.3159446,3.8046104 c -0.026056,-0.017066 -0.041943,-0.054107 -0.068801,-0.068801 -0.010115,-0.00532 -0.024223,0.005 -0.034401,0 -0.1402067,-0.072293 -0.2910045,-0.1141516 -0.4472082,-0.137603 -0.021191,-0.00267 -0.047322,0.00204 -0.068801,0 C 4.5592229,3.5649433 4.4133727,3.5306688 4.2495255,3.5294055 Z"
     id="path2"
     inkscape:connector-curvature="0" />
</svg>
